<svg width="63" height="61" viewBox="0 0 63 61" fill="none" xmlns="http://www.w3.org/2000/svg">
<path d="M12 52.4999L11.25 52.2499L10.5 51.9999L9 50.4999C9.93857 48.2474 12.5582 47.593 15.7494 46.0913C18.9405 44.5896 22.8825 42.9001 22.8825 40.8353V38.0195C21.7563 37.081 19.8791 35.0161 19.5037 32.0127C18.5651 31.0741 17.0634 29.3847 17.0634 27.1321C17.0634 25.8181 17.6265 24.6918 18.002 23.9409C17.6265 22.4392 17.2511 19.6235 17.2511 17.3709C17.2511 10.05 22.3194 5.16943 30.3911 5.16943C32.6437 5.16943 35.4594 5.73258 36.9612 7.42201C40.5277 8.17287 43.5312 12.3026 43.5312 17.3709C43.5312 20.5621 42.968 23.1901 42.5926 24.5041C42.968 25.0672 43.3435 26.0058 43.3435 27.1321C43.3435 29.5724 42.0295 31.2618 40.9032 32.0127C40.5277 35.0161 38.8383 36.8932 37.712 37.8318V40.8353C37.712 42.5247 41.0909 43.8387 44.0943 44.965C47.6609 46.279 51.186 47.9965 52.5 50.9999L50 52.9999C49.4369 51.4982 45.596 49.4701 42.7803 48.5316C38.6506 47.0299 33.9577 45.3404 33.9577 41.023V36.1424L34.8963 35.5792C34.8963 35.5792 37.1489 34.0775 37.1489 31.0741V29.7601L38.2752 29.1969C38.4629 29.1969 39.4014 28.6338 39.4014 27.1321C39.4014 26.7566 39.026 26.1935 38.8383 26.0058L38.0874 25.2549L38.4629 24.3164C38.4629 24.3164 39.4014 21.3129 39.4014 17.5586C39.4014 13.992 37.3366 11.364 35.6472 11.364H34.5209L33.9577 10.4255C33.9577 9.67459 32.6437 8.92373 30.3911 8.92373C24.572 8.92373 21.0054 12.1149 21.0054 17.3709C21.0054 19.8112 21.944 23.9409 21.944 23.9409L22.1317 24.8795L21.3808 25.8181C21.1931 25.8181 20.8177 26.3812 20.8177 27.1321C20.8177 28.0707 21.944 29.1969 22.5071 29.5724L23.258 30.1355V31.0741C23.258 33.8898 25.6983 35.3915 25.6983 35.5792L26.6368 36.1424V41.023C26.6368 45.5281 21.7563 47.7807 17.2511 49.6579C15.1862 50.4087 12.3754 51.5614 12 52.4999Z" fill="#7E1944" fill-opacity="0.68"/>
<path d="M61.517 30.5C61.517 47.051 47.8699 60.4831 31.017 60.4831C14.164 60.4831 0.516949 47.051 0.516949 30.5C0.516949 13.949 14.164 0.516949 31.017 0.516949C47.8699 0.516949 61.517 13.949 61.517 30.5Z" stroke="#7E1944" stroke-opacity="0.68" stroke-width="1.0339"/>
</svg>
