<svg width="32" height="32" viewBox="0 0 32 32" fill="none" xmlns="http://www.w3.org/2000/svg">
<path d="M16 2.57144C18.9553 2.57144 21.7895 3.74542 23.8792 5.83511C25.9689 7.9248 27.1429 10.759 27.1429 13.7143C27.1429 18.4229 23.8343 23.5543 17.3029 29.1634C16.9397 29.4754 16.4767 29.6468 15.9979 29.6464C15.5191 29.6459 15.0564 29.4738 14.6937 29.1612L14.2617 28.7863C8.01946 23.3234 4.85718 18.3177 4.85718 13.7143C4.85718 10.759 6.03115 7.9248 8.12085 5.83511C10.2105 3.74542 13.0448 2.57144 16 2.57144ZM16 4.28573C13.4994 4.28573 11.1012 5.27909 9.33303 7.04729C7.56483 8.81549 6.57146 11.2137 6.57146 13.7143C6.57146 17.7166 9.48346 22.328 15.3875 27.4937L15.8137 27.8629C15.8656 27.9074 15.9317 27.932 16 27.932C16.0684 27.932 16.1345 27.9074 16.1863 27.8629C22.376 22.5463 25.4286 17.8114 25.4286 13.7143C25.4286 12.4761 25.1847 11.2501 24.7109 10.1061C24.2371 8.96221 23.5426 7.92282 22.667 7.04729C21.7915 6.17177 20.7521 5.47727 19.6082 5.00343C18.4643 4.5296 17.2382 4.28573 16 4.28573ZM16 9.42859C17.1367 9.42859 18.2268 9.88011 19.0305 10.6838C19.8342 11.4876 20.2857 12.5777 20.2857 13.7143C20.2857 14.8509 19.8342 15.941 19.0305 16.7448C18.2268 17.5485 17.1367 18 16 18C14.8634 18 13.7733 17.5485 12.9696 16.7448C12.1658 15.941 11.7143 14.8509 11.7143 13.7143C11.7143 12.5777 12.1658 11.4876 12.9696 10.6838C13.7733 9.88011 14.8634 9.42859 16 9.42859ZM16 11.1429C15.318 11.1429 14.664 11.4138 14.1818 11.896C13.6995 12.3783 13.4286 13.0323 13.4286 13.7143C13.4286 14.3963 13.6995 15.0503 14.1818 15.5326C14.664 16.0148 15.318 16.2857 16 16.2857C16.682 16.2857 17.3361 16.0148 17.8183 15.5326C18.3005 15.0503 18.5715 14.3963 18.5715 13.7143C18.5715 13.0323 18.3005 12.3783 17.8183 11.896C17.3361 11.4138 16.682 11.1429 16 11.1429Z" fill="#C4C4C4"/>
</svg>
