<svg width="36" height="36" viewBox="0 0 36 36" fill="none" xmlns="http://www.w3.org/2000/svg">
<g clip-path="url(#clip0_358_27)">
<path fill-rule="evenodd" clip-rule="evenodd" d="M7.19999 2.40002C6.56347 2.40002 5.95302 2.65288 5.50293 3.10297C5.05284 3.55306 4.79999 4.1635 4.79999 4.80002V31.2C4.79999 31.8365 5.05284 32.447 5.50293 32.8971C5.95302 33.3472 6.56347 33.6 7.19999 33.6H25.2C25.5182 33.6 25.8235 33.4736 26.0485 33.2486C26.2736 33.0235 26.4 32.7183 26.4 32.4C26.4 32.0818 26.2736 31.7765 26.0485 31.5515C25.8235 31.3265 25.5182 31.2 25.2 31.2H7.19999V4.80002H25.2C25.5182 4.80002 25.8235 4.6736 26.0485 4.44855C26.2736 4.22351 26.4 3.91828 26.4 3.60002C26.4 3.28176 26.2736 2.97654 26.0485 2.7515C25.8235 2.52645 25.5182 2.40002 25.2 2.40002H7.19999ZM30.2496 11.7504C30.0243 11.5251 29.7187 11.3985 29.4 11.3985C29.0813 11.3985 28.7757 11.5251 28.5504 11.7504C28.3251 11.9758 28.1985 12.2814 28.1985 12.6C28.1985 12.9187 28.3251 13.2243 28.5504 13.4496L31.9032 16.8H15.6C15.2817 16.8 14.9765 16.9265 14.7515 17.1515C14.5264 17.3765 14.4 17.6818 14.4 18C14.4 18.3183 14.5264 18.6235 14.7515 18.8486C14.9765 19.0736 15.2817 19.2 15.6 19.2H31.9032L28.5504 22.5504C28.3251 22.7758 28.1985 23.0814 28.1985 23.4C28.1985 23.7187 28.3251 24.0243 28.5504 24.2496C28.7757 24.475 29.0813 24.6015 29.4 24.6015C29.7187 24.6015 30.0243 24.475 30.2496 24.2496L35.6496 18.8496C35.7613 18.7382 35.85 18.6057 35.9105 18.4599C35.971 18.3142 36.0021 18.1579 36.0021 18C36.0021 17.8422 35.971 17.6859 35.9105 17.5401C35.85 17.3943 35.7613 17.2619 35.6496 17.1504L30.2496 11.7504Z" fill="#A35777"/>
</g>
<defs>
<clipPath id="clip0_358_27">
<rect width="36" height="36" fill="white"/>
</clipPath>
</defs>
</svg>
