<svg width="25" height="25" viewBox="0 0 25 25" fill="none" xmlns="http://www.w3.org/2000/svg">
<path d="M12.5 8.20312C11.6502 8.20312 10.8194 8.45513 10.1128 8.92728C9.40617 9.39943 8.85543 10.0705 8.53021 10.8557C8.20499 11.6408 8.11989 12.5048 8.28569 13.3383C8.45148 14.1718 8.86072 14.9374 9.46165 15.5384C10.0626 16.1393 10.8282 16.5485 11.6617 16.7143C12.4952 16.8801 13.3592 16.795 14.1443 16.4698C14.9295 16.1446 15.6006 15.5938 16.0727 14.8872C16.5449 14.1806 16.7969 13.3498 16.7969 12.5C16.7969 11.3604 16.3442 10.2675 15.5384 9.46165C14.7325 8.65583 13.6396 8.20312 12.5 8.20312ZM12.5 16.0156C11.8047 16.0156 11.125 15.8094 10.5468 15.4231C9.96868 15.0368 9.51807 14.4878 9.25199 13.8454C8.9859 13.203 8.91628 12.4961 9.05193 11.8141C9.18758 11.1322 9.52241 10.5057 10.0141 10.0141C10.5057 9.52241 11.1322 9.18758 11.8141 9.05193C12.4961 8.91628 13.203 8.9859 13.8454 9.25199C14.4878 9.51807 15.0368 9.96868 15.4231 10.5468C15.8094 11.125 16.0156 11.8047 16.0156 12.5C16.0156 13.4324 15.6452 14.3266 14.9859 14.9859C14.3266 15.6452 13.4324 16.0156 12.5 16.0156ZM16.7969 3.125H8.20312C6.85632 3.125 5.56468 3.66001 4.61235 4.61235C3.66001 5.56468 3.125 6.85632 3.125 8.20312V16.7969C3.125 17.4637 3.25635 18.1241 3.51155 18.7402C3.76675 19.3563 4.1408 19.9161 4.61235 20.3877C5.56468 21.34 6.85632 21.875 8.20312 21.875H16.7969C17.4637 21.875 18.1241 21.7437 18.7402 21.4885C19.3563 21.2333 19.9161 20.8592 20.3877 20.3877C20.8592 19.9161 21.2333 19.3563 21.4885 18.7402C21.7437 18.1241 21.875 17.4637 21.875 16.7969V8.20312C21.875 7.53626 21.7437 6.87592 21.4885 6.25981C21.2333 5.6437 20.8592 5.0839 20.3877 4.61235C19.9161 4.1408 19.3563 3.76675 18.7402 3.51155C18.1241 3.25635 17.4637 3.125 16.7969 3.125ZM21.0938 16.7969C21.0938 17.9365 20.641 19.0294 19.8352 19.8352C19.0294 20.641 17.9365 21.0938 16.7969 21.0938H8.20312C7.06352 21.0938 5.9706 20.641 5.16478 19.8352C4.35896 19.0294 3.90625 17.9365 3.90625 16.7969V8.20312C3.90625 7.06352 4.35896 5.9706 5.16478 5.16478C5.9706 4.35896 7.06352 3.90625 8.20312 3.90625H16.7969C17.9365 3.90625 19.0294 4.35896 19.8352 5.16478C20.641 5.9706 21.0938 7.06352 21.0938 8.20312V16.7969ZM18.3594 7.42188C18.3594 7.57639 18.3136 7.72744 18.2277 7.85591C18.1419 7.98439 18.0199 8.08453 17.8771 8.14366C17.7343 8.20279 17.5773 8.21826 17.4257 8.18811C17.2742 8.15797 17.135 8.08356 17.0257 7.9743C16.9164 7.86504 16.842 7.72584 16.8119 7.57429C16.7817 7.42274 16.7972 7.26566 16.8563 7.1229C16.9155 6.98015 17.0156 6.85813 17.1441 6.77229C17.2726 6.68644 17.4236 6.64062 17.5781 6.64062C17.7853 6.64062 17.984 6.72294 18.1306 6.86945C18.2771 7.01596 18.3594 7.21467 18.3594 7.42188Z" fill="#C4C4C4"/>
</svg>
