<svg width="42" height="38" viewBox="0 0 42 38" fill="none" xmlns="http://www.w3.org/2000/svg">
<ellipse cx="21.0001" cy="19" rx="21" ry="19" fill="#D9C6CF"/>
<path d="M8.5 30.8043C9.03167 29.5309 10.7756 29.0004 12.5832 28.1515C14.3909 27.3026 16.6239 26.3476 16.6239 25.1803V23.5886C15.9859 23.058 14.9226 21.8908 14.7099 20.193C14.1782 19.6624 13.3276 18.7074 13.3276 17.434C13.3276 16.6913 13.6466 16.0546 13.8592 15.6301C13.6466 14.7812 13.3276 13.1895 13.3276 11.9162C13.3276 7.77774 16.3049 5.0188 20.8772 5.0188C22.1532 5.0188 23.7482 5.33714 24.5989 6.29216C26.6192 6.71661 28.3205 9.0511 28.3205 11.9162C28.3205 13.7201 28.0015 15.2057 27.7889 15.9485C28.0015 16.2668 28.2142 16.7974 28.2142 17.434C28.2142 18.8135 27.4699 19.7685 26.8319 20.193C26.6192 21.8908 25.6622 22.9519 25.0242 23.4825V25.1803C25.0242 26.1353 26.9382 26.8781 28.6395 27.5148C30.6598 28.2576 32.7865 29.1065 33.5308 30.8043" stroke="#7E1944"/>
</svg>
