<svg width="25" height="25" viewBox="0 0 25 25" fill="none" xmlns="http://www.w3.org/2000/svg">
<path d="M22.3241 3.39842C22.1629 3.25919 21.9668 3.16652 21.7569 3.13039C21.547 3.09425 21.3312 3.11602 21.1327 3.19334L3.11512 10.2734C2.88097 10.3666 2.68308 10.5327 2.55083 10.7473C2.41857 10.9618 2.35898 11.2132 2.38091 11.4642C2.40284 11.7153 2.5051 11.9526 2.67254 12.1409C2.83998 12.3292 3.06368 12.4586 3.31043 12.5097L8.20301 13.4961V19.5312C8.20004 19.7637 8.26748 19.9917 8.39645 20.1852C8.52543 20.3786 8.70991 20.5285 8.92567 20.6152C9.07171 20.6733 9.22747 20.7032 9.38465 20.7031C9.5372 20.7033 9.68826 20.6731 9.82908 20.6145C9.9699 20.5558 10.0977 20.4697 10.205 20.3613L12.9979 17.5683L17.119 21.1914C17.3302 21.3826 17.6057 21.4872 17.8905 21.4844C18.0133 21.484 18.1352 21.4643 18.2518 21.4258C18.4438 21.3628 18.6165 21.2516 18.7533 21.1028C18.89 20.9541 18.9864 20.7728 19.0331 20.5762L22.705 4.541C22.753 4.33395 22.7429 4.11764 22.6757 3.91599C22.6085 3.71434 22.4868 3.53522 22.3241 3.39842ZM3.15418 11.3965C3.14257 11.3118 3.16051 11.2258 3.20499 11.1528C3.24947 11.0799 3.31776 11.0245 3.39832 10.9961L19.9218 4.5117L8.50574 12.7539L3.46668 11.748C3.38275 11.7329 3.30633 11.69 3.24967 11.6263C3.19301 11.5625 3.15939 11.4816 3.15418 11.3965ZM9.64832 19.8047C9.59526 19.8598 9.52682 19.8977 9.45191 19.9134C9.37701 19.929 9.29912 19.9218 9.2284 19.8926C9.15639 19.8634 9.0947 19.8135 9.05122 19.7491C9.00773 19.6848 8.98442 19.6089 8.98426 19.5312V14.0332L12.412 17.0508L9.64832 19.8047ZM21.9432 4.37498L18.2714 20.4004C18.2567 20.4668 18.2245 20.5282 18.1782 20.578C18.1318 20.6278 18.0729 20.6642 18.0077 20.6836C17.9447 20.7062 17.8766 20.7109 17.8111 20.6971C17.7455 20.6833 17.6851 20.6516 17.6366 20.6055L9.21863 13.2031L21.8847 4.05272C21.9166 4.09927 21.9383 4.15204 21.9484 4.20758C21.9585 4.26312 21.9567 4.32017 21.9432 4.37498Z" fill="#C4C4C4"/>
</svg>
