<svg width="32" height="27" viewBox="0 0 32 27" fill="none" xmlns="http://www.w3.org/2000/svg">
<path d="M24 10.8105H22C21.9992 10.1491 21.6829 9.51494 21.1204 9.04723C20.558 8.57952 19.7954 8.31647 19 8.31581V6.65265C20.3256 6.65397 21.5964 7.09246 22.5338 7.87193C23.4711 8.6514 23.9984 9.70821 24 10.8105V10.8105Z" fill="white"/>
<path d="M28 10.8105H26C25.9979 9.26724 25.2597 7.78766 23.9474 6.69638C22.6351 5.6051 20.8559 4.99125 19 4.98949V3.32633C21.3862 3.32853 23.6738 4.11775 25.3611 5.52084C27.0483 6.92392 27.9974 8.82628 28 10.8105V10.8105ZM26 24.1158H25.83C6.18004 23.1761 3.39004 9.38854 3.00004 5.18075C2.93908 4.5211 3.19572 3.86833 3.7135 3.36602C4.23128 2.86371 4.96779 2.553 5.76104 2.50224C5.84037 2.49725 5.92004 2.49475 6.00004 2.49475H11.27C11.6706 2.49443 12.062 2.59413 12.3937 2.78095C12.7253 2.96777 12.9818 3.23309 13.13 3.54254L14.65 6.65265C14.7964 6.95496 14.8327 7.28637 14.7545 7.60571C14.6763 7.92505 14.4869 8.21824 14.21 8.44886L12.08 10.2368C12.4114 11.8095 13.3164 13.2595 14.6724 14.3901C16.0283 15.5206 17.7696 16.2771 19.66 16.5568L21.83 14.7689C22.1115 14.5411 22.4674 14.3874 22.8533 14.3267C23.2392 14.2661 23.638 14.3013 24 14.4279L27.77 15.6836C28.1366 15.8107 28.4493 16.0257 28.6683 16.3012C28.8874 16.5766 29.0028 16.9001 29 17.2303V21.6211C29 22.2827 28.684 22.9173 28.1214 23.3851C27.5587 23.853 26.7957 24.1158 26 24.1158ZM6.00004 4.15791C5.86871 4.15758 5.7386 4.17877 5.61712 4.22025C5.49565 4.26174 5.38519 4.32272 5.29205 4.39971C5.19891 4.4767 5.12492 4.56819 5.0743 4.66895C5.02368 4.76972 4.99743 4.87779 4.99704 4.98699C4.99704 5.01028 4.99804 5.03328 5.00004 5.05601C5.46004 9.97896 8.41004 21.6211 25.94 22.4526C26.2047 22.4658 26.4648 22.3911 26.6632 22.2448C26.8616 22.0985 26.9821 21.8927 26.998 21.6726L27 21.6211V17.2303L23.23 15.9746L20.36 18.3446L19.88 18.2948C11.18 17.3883 10 10.1536 10 10.0788L9.94003 9.67959L12.78 7.29296L11.28 4.15791H6.00004Z" fill="white"/>
</svg>
