<svg width="24" height="26" viewBox="0 0 24 26" fill="none" xmlns="http://www.w3.org/2000/svg">
<path d="M1.8 25.3L0 24.5C0.5 23.3 2.1 22.6 3.8 21.8C5.5 21 7.6 20.1 7.6 19V17.5C7 17 6 15.9 5.8 14.3C5.3 13.8 4.5 12.9 4.5 11.7C4.5 11 4.8 10.4 5 10C4.8 9.2 4.6 7.7 4.6 6.5C4.6 2.6 7.3 0 11.6 0C12.8 0 14.3 0.3 15.1 1.2C17 1.6 18.6 3.8 18.6 6.5C18.6 8.2 18.3 9.6 18.1 10.3C18.3 10.6 18.5 11.1 18.5 11.7C18.5 13 17.8 13.9 17.2 14.3C17 15.9 16.1 16.9 15.5 17.4V19C15.5 19.9 17.3 20.6 18.9 21.2C20.8 21.9 22.8 22.7 23.5 24.3L21.6 25C21.3 24.2 19.7 23.6 18.2 23.1C16 22.3 13.5 21.4 13.5 19.1V16.5L14 16.2C14 16.2 15.2 15.4 15.2 13.8V13.1L15.8 12.8C15.9 12.8 16.4 12.5 16.4 11.7C16.4 11.5 16.2 11.2 16.1 11.1L15.7 10.7L15.9 10.2C15.9 10.2 16.4 8.6 16.4 6.6C16.4 4.7 15.3 3.3 14.4 3.3H13.8L13.5 2.8C13.5 2.4 12.8 2 11.6 2C8.5 2 6.6 3.7 6.6 6.5C6.6 7.8 7.1 10 7.1 10L7.2 10.5L6.8 11C6.7 11 6.5 11.3 6.5 11.7C6.5 12.2 7.1 12.8 7.4 13L7.8 13.3V13.8C7.8 15.3 9.1 16.1 9.1 16.2L9.6 16.5V19.1C9.6 21.5 7 22.7 4.6 23.7C3.5 24.1 2 24.8 1.8 25.3Z" fill="#F8EAF0"/>
</svg>
