<svg width="62" height="61" viewBox="0 0 62 61" fill="none" xmlns="http://www.w3.org/2000/svg">
<path d="M11.9934 52.4999L11.2438 52.2499L10.4942 51.9999L8.99506 50.4999C9.93312 48.2474 12.5513 47.593 15.7407 46.0913C18.9302 44.5896 22.87 42.9001 22.87 40.8353V38.0195C21.7443 37.081 19.8682 35.0161 19.493 32.0127C18.5549 31.0741 17.054 29.3847 17.054 27.1321C17.054 25.8181 17.6169 24.6918 17.9921 23.9409C17.6169 22.4392 17.2416 19.6235 17.2416 17.3709C17.2416 10.05 22.3072 5.16943 30.3745 5.16943C32.6258 5.16943 35.44 5.73258 36.9409 7.42201C40.5056 8.17287 43.5074 12.3026 43.5074 17.3709C43.5074 20.5621 42.9445 23.1901 42.5693 24.5041C42.9445 25.0672 43.3197 26.0058 43.3197 27.1321C43.3197 29.5724 42.0065 31.2618 40.8808 32.0127C40.5056 35.0161 38.8171 36.8932 37.6914 37.8318V40.8353C37.6914 42.5247 41.0684 43.8387 44.0702 44.965C47.6348 46.279 51.158 47.9965 52.4713 50.9999L49.9726 52.9999C49.4098 51.4982 45.5711 49.4701 42.7569 48.5316C38.6294 47.0299 33.9391 45.3404 33.9391 41.023V36.1424L34.8772 35.5792C34.8772 35.5792 37.1285 34.0775 37.1285 31.0741V29.7601L38.2542 29.1969C38.4418 29.1969 39.3799 28.6338 39.3799 27.1321C39.3799 26.7566 39.0047 26.1935 38.8171 26.0058L38.0666 25.2549L38.4418 24.3164C38.4418 24.3164 39.3799 21.3129 39.3799 17.5586C39.3799 13.992 37.3162 11.364 35.6276 11.364H34.502L33.9391 10.4255C33.9391 9.67459 32.6258 8.92373 30.3745 8.92373C24.5585 8.92373 20.9939 12.1149 20.9939 17.3709C20.9939 19.8112 21.9319 23.9409 21.9319 23.9409L22.1196 24.8795L21.3691 25.8181C21.1815 25.8181 20.8063 26.3812 20.8063 27.1321C20.8063 28.0707 21.9319 29.1969 22.4948 29.5724L23.2452 30.1355V31.0741C23.2452 33.8898 25.6842 35.3915 25.6842 35.5792L26.6223 36.1424V41.023C26.6223 45.5281 21.7443 47.7807 17.2416 49.6579C15.1779 50.4087 12.3686 51.5614 11.9934 52.4999Z" fill="#7E1944" fill-opacity="0.68"/>
<path d="M61 30.5C61 46.7771 47.5839 60 31 60C14.4161 60 1 46.7771 1 30.5C1 14.2229 14.4161 1 31 1C47.5839 1 61 14.2229 61 30.5Z" stroke="#7E1944" stroke-opacity="0.68" stroke-width="2"/>
</svg>
