<svg width="25" height="25" viewBox="0 0 25 25" fill="none" xmlns="http://www.w3.org/2000/svg">
<path d="M12.5001 2.73438C10.7905 2.73419 9.11089 3.18278 7.62908 4.0353C6.14728 4.88782 4.91523 6.11439 4.05611 7.59238C3.197 9.07037 2.74093 10.748 2.73349 12.4575C2.72605 14.167 3.16752 15.8486 4.01374 17.334L3.13483 20.4199C3.0785 20.6203 3.07655 20.8321 3.12918 21.0334C3.18182 21.2348 3.28715 21.4186 3.43433 21.5657C3.58151 21.7129 3.76524 21.8182 3.96662 21.8709C4.168 21.9235 4.37977 21.9216 4.58015 21.8652L7.66608 20.9863C8.96557 21.7263 10.4176 22.1579 11.9103 22.2479C13.403 22.3379 14.8964 22.084 16.2754 21.5056C17.6544 20.9272 18.8821 20.0399 19.864 18.912C20.8458 17.7841 21.5555 16.4457 21.9384 15.0002C22.3212 13.5547 22.367 12.0405 22.0721 10.5745C21.7773 9.10844 21.1497 7.72971 20.2378 6.54458C19.3258 5.35944 18.1539 4.39957 16.8123 3.73896C15.4708 3.07835 13.9954 2.73466 12.5001 2.73438ZM12.5001 21.4844C10.8842 21.4881 9.29775 21.0527 7.91022 20.2246C7.84965 20.1938 7.78287 20.1771 7.71491 20.1758H7.60749L4.3653 21.1035C4.29905 21.1213 4.22929 21.1213 4.16303 21.1036C4.09677 21.0858 4.03635 21.051 3.98785 21.0025C3.93935 20.9539 3.90447 20.8935 3.88673 20.8273C3.86899 20.761 3.86901 20.6912 3.88679 20.625L4.81452 17.3828C4.84199 17.2807 4.82794 17.1719 4.77546 17.0801C3.7649 15.3747 3.34674 13.3829 3.58611 11.4151C3.82549 9.44729 4.70895 7.61388 6.09889 6.20048C7.48882 4.78708 9.30718 3.87305 11.2707 3.60078C13.2343 3.3285 15.2327 3.71326 16.9548 4.69513C18.6769 5.677 20.0259 7.20084 20.7917 9.02928C21.5574 10.8577 21.697 12.8881 21.1886 14.8041C20.6803 16.7202 19.5525 18.4143 17.9809 19.6225C16.4094 20.8308 14.4824 21.4854 12.5001 21.4844ZM17.4317 14.3066L15.4395 13.1738C15.2579 13.0698 15.0518 13.0158 14.8425 13.0176C14.6332 13.0193 14.428 13.0766 14.2481 13.1836L12.9005 13.9941C12.0887 13.5731 11.4269 12.9114 11.0059 12.0996L11.8165 10.752C11.9235 10.572 11.9808 10.3669 11.9825 10.1576C11.9842 9.94823 11.9303 9.7422 11.8262 9.56055L10.6934 7.56836C10.5994 7.40543 10.4642 7.27007 10.3013 7.17581C10.1385 7.08155 9.95382 7.0317 9.76569 7.03125C8.93858 7.03125 8.1452 7.35914 7.55943 7.94309C6.97366 8.52703 6.64328 9.31938 6.64069 10.1465C6.63941 11.2246 6.85064 12.2923 7.26231 13.2887C7.67398 14.2851 8.27802 15.1905 9.03988 15.9533C9.80173 16.716 10.7065 17.3212 11.7024 17.734C12.6982 18.1469 13.7657 18.3594 14.8438 18.3594H14.8536C15.6807 18.3568 16.473 18.0264 17.057 17.4406C17.6409 16.8549 17.9688 16.0615 17.9688 15.2344C17.9684 15.0462 17.9185 14.8615 17.8243 14.6987C17.73 14.5359 17.5946 14.4007 17.4317 14.3066ZM14.8536 17.5781H14.8438C12.8745 17.5755 10.9868 16.7914 9.59516 15.398C8.20357 14.0046 7.42194 12.1158 7.42194 10.1465C7.42453 9.52658 7.6726 8.93294 8.11185 8.49551C8.55111 8.05808 9.14578 7.81249 9.76569 7.8125C9.8157 7.81319 9.86463 7.8271 9.90751 7.85283C9.95039 7.87856 9.98569 7.91519 10.0098 7.95898L11.1524 9.95117C11.1857 10.0126 11.2032 10.0814 11.2032 10.1514C11.2032 10.2213 11.1857 10.2901 11.1524 10.3516L10.2344 11.875C10.2006 11.9286 10.1811 11.9899 10.1777 12.0531C10.1742 12.1164 10.1871 12.1794 10.2149 12.2363C10.7235 13.3696 11.6305 14.2766 12.7637 14.7852C12.8206 14.813 12.8837 14.8258 12.9469 14.8224C13.0102 14.819 13.0715 14.7994 13.1251 14.7656L14.6485 13.8477C14.71 13.8143 14.7788 13.7969 14.8487 13.7969C14.9186 13.7969 14.9874 13.8143 15.0489 13.8477L17.0411 14.9902C17.0849 15.0144 17.1215 15.0497 17.1472 15.0926C17.173 15.1354 17.1869 15.1844 17.1876 15.2344C17.1876 15.8543 16.942 16.449 16.5046 16.8882C16.0671 17.3275 15.4735 17.5755 14.8536 17.5781Z" fill="#C4C4C4"/>
</svg>
